<svg xmlns="http://www.w3.org/2000/svg" width="2079" height="1967" viewBox="0 0 2079 1967" fill="none"><path d="M945.512 701.509H475.158C438.818 701.509 408.509 672.324 407.592 636.451C407.573 635.706 407.563 634.963 407.563 634.215C407.563 588.158 443.132 550.734 488.875 548.244C500.236 500.767 527.48 457.741 565.732 426.926C605.031 395.267 654.522 377.833 705.088 377.833C812.212 377.833 903.804 453.815 923.545 558.762C967.754 564.13 1000.87 601.416 1000.87 646.203L1000.87 646.815C1000.66 676.975 975.83 701.509 945.512 701.509ZM705.089 382.529C603.12 382.529 515.923 451.823 493.043 551.039C492.803 552.075 491.898 552.823 490.835 552.857C446.774 554.366 412.26 590.102 412.26 634.215C412.26 634.921 412.269 635.628 412.286 636.332C413.138 669.681 441.342 696.813 475.158 696.813H945.512C973.258 696.813 995.985 674.37 996.173 646.786L996.175 646.204C996.175 603.245 963.992 567.578 921.315 563.239C920.273 563.134 919.427 562.349 919.241 561.317C900.587 457.721 810.523 382.529 705.089 382.529Z" fill="black"></path><path d="M492.396 400.81H194.646C193.349 400.81 192.298 399.76 192.298 398.462C192.298 397.164 193.349 396.114 194.646 396.114H492.396C519.589 396.114 541.863 374.118 542.048 347.083L542.05 346.512C542.05 304.392 510.495 269.422 468.653 265.168C467.611 265.062 466.765 264.278 466.579 263.246C458.499 218.372 436.595 177.953 403.235 146.357C402.292 145.467 402.252 143.979 403.144 143.039C404.037 142.096 405.523 142.058 406.463 142.95C440.127 174.831 462.378 215.516 470.884 260.692C514.259 265.975 546.746 302.562 546.746 346.512L546.744 347.113C546.542 376.723 522.161 400.81 492.396 400.81Z" fill="black"></path><path d="M1927.92 1272.12H1305.69C1304.39 1272.12 1303.34 1271.07 1303.34 1269.78V175.542C1303.34 174.244 1304.39 173.194 1305.69 173.194H1927.92C1929.21 173.194 1930.27 174.244 1930.27 175.542V1269.78C1930.27 1271.07 1929.21 1272.12 1927.92 1272.12ZM1308.04 1267.43H1925.57V177.89H1308.04V1267.43Z" fill="black"></path><path d="M1028.01 764.413L1014.25 755.317L1080.83 653.994L975.484 738.533L892.91 702.786L876.267 723.416L762.776 665.187L760.164 718.06L890.252 779.867L906.02 749.432L1035.15 804.23L1063.09 770.411L1166.11 810.747L1046.71 741.139L1028.01 764.413Z" fill="black"></path><path d="M1182.46 282.967L1256.44 246.771L1273.08 267.401L1327.98 242.003V296.085L1259.1 323.851L1238.55 295.479L1175.32 322.784L1147.38 288.965L1044.37 329.302L1163.76 259.693L1182.46 282.967Z" fill="black"></path><path d="M1327.98 1260.54H728.042C727.398 1260.54 726.782 1260.27 726.338 1259.81C725.894 1259.34 725.663 1258.71 725.697 1258.07L757.248 665.199L725.698 175.694C725.657 175.045 725.885 174.41 726.329 173.937C726.773 173.462 727.393 173.194 728.042 173.194H1327.98C1329.28 173.194 1330.33 174.244 1330.33 175.542V1258.19C1330.33 1259.49 1329.28 1260.54 1327.98 1260.54ZM730.519 1255.84H1325.63V177.89H730.546L761.945 665.034C761.951 665.126 761.951 665.217 761.946 665.309L730.519 1255.84Z" fill="black"></path><path d="M1871.85 70.8506H1327.98V218.506H1965.05L1871.85 70.8506Z" fill="black"></path><path d="M1965.05 220.855H1327.98C1326.68 220.855 1325.63 219.805 1325.63 218.507V70.8499C1325.63 69.5519 1326.68 68.502 1327.98 68.502H1871.85C1872.66 68.502 1873.41 68.9149 1873.84 69.5959L1967.04 217.252C1967.49 217.977 1967.52 218.892 1967.11 219.639C1966.69 220.389 1965.91 220.855 1965.05 220.855ZM1330.33 216.159H1960.79L1870.56 73.1989H1330.33V216.159Z" fill="black"></path><path d="M690.91 220.855C690.068 220.855 689.29 220.406 688.871 219.672C688.44 218.917 688.461 217.989 688.924 217.253L782.12 69.5968C782.565 68.8948 783.361 68.4318 784.18 68.5058L1083.72 78.0228L1327.89 68.5058C1328.53 68.4598 1329.15 68.7168 1329.61 69.1598C1330.07 69.6028 1330.33 70.2148 1330.33 70.8518V218.507C1330.33 219.14 1330.07 219.745 1329.62 220.188C1329.17 220.631 1328.58 220.862 1327.92 220.855L974.26 212.334L690.981 220.855C690.957 220.855 690.932 220.855 690.91 220.855ZM974.245 207.637L1325.63 216.101V73.2928L1083.74 82.7128L785.373 73.2398L695.251 216.028L974.245 207.637Z" fill="black"></path><path d="M984.385 77.2141L837.2 72.5381L817.713 103.41H902.928L887.454 127.924H952.255L984.385 77.2141Z" fill="black"></path><path d="M1119.72 162.646L1088.32 212.731L1151.25 215.712L1184.52 162.646H1119.72Z" fill="black"></path><path d="M1273.58 1896.95H1113.13C1111.83 1896.95 1110.78 1895.9 1110.78 1894.6V1393.43C1110.78 1392.13 1111.83 1391.08 1113.13 1391.08H1273.58C1274.88 1391.08 1275.93 1392.13 1275.93 1393.43V1894.6C1275.93 1895.9 1274.88 1896.95 1273.58 1896.95ZM1115.48 1892.25H1271.23V1395.77H1115.48V1892.25Z" fill="black"></path><path d="M1234.68 1702.38C1233.38 1702.38 1232.33 1701.33 1232.33 1700.03V1644.01C1232.33 1642.72 1233.38 1641.67 1234.68 1641.67C1235.98 1641.67 1237.03 1642.72 1237.03 1644.01V1700.03C1237.03 1701.33 1235.98 1702.38 1234.68 1702.38Z" fill="black"></path><path d="M1542.83 1896.95H1382.38C1381.08 1896.95 1380.03 1895.9 1380.03 1894.6V1393.43C1380.03 1392.13 1381.08 1391.08 1382.38 1391.08H1542.83C1544.13 1391.08 1545.18 1392.13 1545.18 1393.43V1894.6C1545.18 1895.9 1544.13 1896.95 1542.83 1896.95ZM1384.73 1892.25H1540.48V1395.77H1384.73V1892.25Z" fill="black"></path><path d="M1507.72 1702.38C1506.43 1702.38 1505.38 1701.33 1505.38 1700.03V1644.01C1505.38 1642.72 1506.43 1641.67 1507.72 1641.67C1509.02 1641.67 1510.07 1642.72 1510.07 1644.01V1700.03C1510.07 1701.33 1509.02 1702.38 1507.72 1702.38Z" fill="black"></path><path d="M1327.98 1896.95H744.385C743.112 1896.95 742.071 1895.94 742.038 1894.66L725.695 1269.84C725.678 1269.2 725.919 1268.59 726.36 1268.14C726.803 1267.68 727.409 1267.43 728.042 1267.43H1327.98C1329.28 1267.43 1330.33 1268.48 1330.33 1269.78V1894.6C1330.33 1895.9 1329.28 1896.95 1327.98 1896.95ZM746.672 1892.25H1325.63V1272.12H730.452L746.672 1892.25Z" fill="black"></path><path d="M1927.92 1896.95H744.385C743.112 1896.95 742.071 1895.94 742.038 1894.66L725.695 1269.84C725.678 1269.2 725.919 1268.59 726.36 1268.14C726.803 1267.68 727.409 1267.43 728.042 1267.43H1927.92C1929.21 1267.43 1930.27 1268.48 1930.27 1269.78V1894.6C1930.27 1895.9 1929.21 1896.95 1927.92 1896.95ZM746.672 1892.25H1925.57V1272.12H730.452L746.672 1892.25Z" fill="black"></path><path d="M1951.91 1292.12H1322.54C1321.24 1292.12 1320.19 1291.07 1320.19 1289.77V1226.61C1320.19 1225.31 1321.24 1224.26 1322.54 1224.26H1951.91C1953.21 1224.26 1954.26 1225.31 1954.26 1226.61V1289.77C1954.26 1291.07 1953.21 1292.12 1951.91 1292.12ZM1324.89 1287.43H1949.57V1228.96H1324.89V1287.43Z" fill="black"></path><path d="M1327.98 1289.78L1080.21 1283.14L704.045 1289.78V1226.61L1083.65 1206.07L1327.98 1226.61V1289.78Z" fill="black"></path><path d="M1543.21 1120.26H1382.01C1380.71 1120.26 1379.66 1119.21 1379.66 1117.91V866.532C1379.66 820.793 1416.87 783.583 1462.61 783.583C1508.34 783.583 1545.55 820.794 1545.55 866.532V1117.91C1545.55 1119.2 1544.5 1120.26 1543.21 1120.26ZM1384.35 1115.56H1540.86V866.531C1540.86 823.381 1505.76 788.278 1462.61 788.278C1419.46 788.278 1384.35 823.381 1384.35 866.531L1384.35 1115.56Z" fill="black"></path><path d="M1391.17 1097.04C1390.9 1097.04 1390.62 1096.99 1390.35 1096.89C1389.44 1096.55 1388.83 1095.67 1388.83 1094.69V1041.51C1388.83 1040.97 1389.01 1040.45 1389.35 1040.03L1532.21 864.561C1532.84 863.793 1533.89 863.499 1534.82 863.832C1535.76 864.165 1536.38 865.052 1536.38 866.045V929.876C1536.38 930.44 1536.18 930.988 1535.81 931.415L1392.95 1096.23C1392.49 1096.76 1391.84 1097.04 1391.17 1097.04ZM1393.52 1042.35V1088.4L1531.69 929.001V872.65L1393.52 1042.35Z" fill="black"></path><path d="M1462.61 1099.51C1461.31 1099.51 1460.26 1098.46 1460.26 1097.17V820.758C1460.26 819.46 1461.31 818.41 1462.61 818.41C1463.9 818.41 1464.95 819.46 1464.95 820.758V1097.17C1464.95 1098.46 1463.9 1099.51 1462.61 1099.51Z" fill="black"></path><path d="M1812.46 1120.26H1651.26C1649.96 1120.26 1648.91 1119.21 1648.91 1117.91V866.532C1648.91 820.793 1686.12 783.583 1731.86 783.583C1777.6 783.583 1814.81 820.794 1814.81 866.532V1117.91C1814.81 1119.2 1813.75 1120.26 1812.46 1120.26ZM1653.61 1115.56H1810.11V866.531C1810.11 823.381 1775.01 788.278 1731.86 788.278C1688.71 788.278 1653.61 823.381 1653.61 866.531V1115.56Z" fill="black"></path><path d="M1696.07 974.471C1695.81 974.471 1695.54 974.427 1695.28 974.336C1694.35 974.003 1693.72 973.116 1693.72 972.123V942.418C1693.72 941.904 1693.89 941.407 1694.2 940.996L1765.77 846.834C1766.38 846.034 1767.44 845.704 1768.39 846.032C1769.35 846.353 1769.99 847.247 1769.99 848.256V884.285C1769.99 884.826 1769.8 885.349 1769.46 885.769L1697.89 973.607C1697.44 974.163 1696.77 974.471 1696.07 974.471ZM1698.42 943.208V965.522L1765.3 883.449V855.223L1698.42 943.208Z" fill="black"></path><path d="M1731.86 1099.51C1730.56 1099.51 1729.51 1098.46 1729.51 1097.17V820.758C1729.51 819.46 1730.56 818.41 1731.86 818.41C1733.16 818.41 1734.21 819.46 1734.21 820.758V1097.17C1734.21 1098.46 1733.15 1099.51 1731.86 1099.51Z" fill="black"></path><path d="M1543.21 672.404H1382.01C1380.71 672.404 1379.66 671.354 1379.66 670.056V418.679C1379.66 372.94 1416.87 335.73 1462.61 335.73C1508.34 335.73 1545.55 372.94 1545.55 418.679V670.056C1545.55 671.353 1544.5 672.404 1543.21 672.404ZM1384.35 667.707H1540.86V418.679C1540.86 375.529 1505.76 340.426 1462.61 340.426C1419.46 340.426 1384.35 375.529 1384.35 418.679L1384.35 667.707Z" fill="black"></path><path d="M1391.18 656.34C1390.9 656.34 1390.62 656.292 1390.36 656.191C1389.44 655.849 1388.83 654.971 1388.83 653.992V600.812C1388.83 600.271 1389.01 599.748 1389.36 599.328L1532.22 423.863C1532.84 423.095 1533.89 422.806 1534.82 423.134C1535.76 423.467 1536.39 424.354 1536.39 425.347V489.176C1536.39 489.74 1536.18 490.288 1535.81 490.715L1392.95 655.531C1392.5 656.056 1391.84 656.34 1391.18 656.34ZM1393.52 601.647V647.697L1531.69 488.3V431.951L1393.52 601.647Z" fill="black"></path><path d="M1391.18 548.214C1390.9 548.214 1390.62 548.166 1390.36 548.067C1389.44 547.723 1388.83 546.847 1388.83 545.866V514.608C1388.83 514.06 1389.02 513.53 1389.37 513.108L1484.22 398.764C1484.85 398.003 1485.9 397.723 1486.82 398.055C1487.75 398.39 1488.37 399.273 1488.37 400.263V436.176C1488.37 436.74 1488.17 437.286 1487.8 437.712L1392.95 547.401C1392.5 547.927 1391.84 548.214 1391.18 548.214ZM1393.52 515.454V539.559L1483.68 435.302V406.771L1393.52 515.454Z" fill="black"></path><path d="M1462.61 651.663C1461.31 651.663 1460.26 650.613 1460.26 649.315V372.907C1460.26 371.609 1461.31 370.559 1462.61 370.559C1463.9 370.559 1464.95 371.609 1464.95 372.907V649.315C1464.95 650.613 1463.9 651.663 1462.61 651.663Z" fill="black"></path><path d="M1812.46 672.404H1651.26C1649.96 672.404 1648.91 671.354 1648.91 670.056V418.679C1648.91 372.94 1686.12 335.73 1731.86 335.73C1777.6 335.73 1814.81 372.94 1814.81 418.679V670.056C1814.81 671.353 1813.75 672.404 1812.46 672.404ZM1653.61 667.707H1810.11V418.679C1810.11 375.529 1775.01 340.426 1731.86 340.426C1688.71 340.426 1653.61 375.529 1653.61 418.679V667.707Z" fill="black"></path><path d="M1660.43 656.34C1660.15 656.34 1659.87 656.292 1659.61 656.191C1658.69 655.849 1658.08 654.971 1658.08 653.992V600.812C1658.08 600.271 1658.27 599.748 1658.61 599.328L1801.47 423.863C1802.09 423.095 1803.15 422.806 1804.07 423.134C1805.01 423.467 1805.64 424.354 1805.64 425.347V489.176C1805.64 489.74 1805.43 490.288 1805.06 490.715L1662.2 655.531C1661.75 656.056 1661.09 656.34 1660.43 656.34ZM1662.78 601.647V647.697L1800.94 488.3V431.951L1662.78 601.647Z" fill="black"></path><path d="M1696.07 526.479C1695.81 526.479 1695.54 526.435 1695.28 526.344C1694.35 526.011 1693.72 525.124 1693.72 524.131V494.426C1693.72 493.912 1693.89 493.415 1694.2 493.004L1765.77 398.842C1766.38 398.042 1767.44 397.712 1768.39 398.039C1769.35 398.36 1769.99 399.254 1769.99 400.263V436.292C1769.99 436.833 1769.8 437.356 1769.46 437.776L1697.89 525.614C1697.44 526.171 1696.77 526.479 1696.07 526.479ZM1698.42 495.217V517.531L1765.3 435.458V407.232L1698.42 495.217Z" fill="black"></path><path d="M1731.86 651.663C1730.56 651.663 1729.51 650.613 1729.51 649.315V372.907C1729.51 371.609 1730.56 370.559 1731.86 370.559C1733.16 370.559 1734.21 371.609 1734.21 372.907V649.315C1734.21 650.613 1733.15 651.663 1731.86 651.663Z" fill="black"></path><path d="M1846.45 1828.93H1617.27C1615.97 1828.93 1614.92 1827.88 1614.92 1826.58V1469.18C1614.92 1404.7 1667.38 1352.24 1731.86 1352.24C1796.34 1352.24 1848.8 1404.7 1848.8 1469.18V1826.58C1848.8 1827.88 1847.75 1828.93 1846.45 1828.93ZM1619.61 1824.23H1844.1V1469.18C1844.1 1407.29 1793.75 1356.94 1731.86 1356.94C1669.97 1356.94 1619.61 1407.29 1619.61 1469.18V1824.23Z" fill="black"></path><path d="M1659.23 1769.25C1658.95 1769.25 1658.67 1769.2 1658.41 1769.1C1657.49 1768.76 1656.88 1767.88 1656.88 1766.9V1698.98C1656.88 1698.43 1657.07 1697.91 1657.42 1697.48L1825.07 1494.32C1825.71 1493.55 1826.75 1493.27 1827.68 1493.6C1828.61 1493.94 1829.23 1494.82 1829.23 1495.81V1573.48C1829.23 1574.04 1829.03 1574.59 1828.66 1575.02L1661 1768.44C1660.55 1768.97 1659.89 1769.25 1659.23 1769.25ZM1661.58 1699.82V1760.61L1824.54 1572.6V1502.35L1661.58 1699.82Z" fill="black"></path><path d="M1731.86 1788.8C1730.56 1788.8 1729.51 1787.75 1729.51 1786.45V1404.11C1729.51 1402.81 1730.56 1401.76 1731.86 1401.76C1733.16 1401.76 1734.21 1402.81 1734.21 1404.11V1786.45C1734.21 1787.75 1733.15 1788.8 1731.86 1788.8Z" fill="black"></path><path d="M1004.7 1120.26H843.5C842.203 1120.26 841.152 1119.21 841.152 1117.91V866.532C841.152 820.793 878.362 783.583 924.101 783.583C969.839 783.583 1007.05 820.794 1007.05 866.532V1117.91C1007.05 1119.2 1006 1120.26 1004.7 1120.26ZM845.849 1115.56H1002.35V866.531C1002.35 823.381 967.25 788.278 924.101 788.278C880.952 788.278 845.848 823.381 845.848 866.531L845.849 1115.56Z" fill="black"></path><path d="M901.265 946.804L843.501 880.196V973.552L945.152 1027.29L945.997 989.667L1004.7 1029.4L954.028 922.04L901.265 946.804Z" fill="black"></path><path d="M924.101 1099.51C922.804 1099.51 921.753 1098.46 921.753 1097.17V820.758C921.753 819.46 922.804 818.41 924.101 818.41C925.398 818.41 926.449 819.46 926.449 820.758V1097.17C926.45 1098.46 925.398 1099.51 924.101 1099.51Z" fill="black"></path><path d="M1273.95 1120.26H1112.75C1111.46 1120.26 1110.41 1119.21 1110.41 1117.91V866.532C1110.41 820.793 1147.62 783.583 1193.35 783.583C1239.09 783.583 1276.3 820.794 1276.3 866.532V1117.91C1276.3 1119.2 1275.25 1120.26 1273.95 1120.26ZM1115.1 1115.56H1271.61V866.531C1271.61 823.381 1236.5 788.278 1193.35 788.278C1150.2 788.278 1115.1 823.381 1115.1 866.531V1115.56H1115.1Z" fill="black"></path><path d="M1134.51 885.315L1112.75 877.144V916.824L1151.41 929.598V914.15L1233.83 944.019L1134.51 857.795V885.315Z" fill="black"></path><path d="M1273.95 933.859L1194.67 1018.81L1181.99 996.828L1113.41 1079.55L1179.45 1034.02L1195.51 1058.29L1273.95 1008.36V933.859Z" fill="black"></path><path d="M1193.35 1099.51C1192.06 1099.51 1191.01 1098.46 1191.01 1097.17V820.758C1191.01 819.46 1192.06 818.41 1193.35 818.41C1194.65 818.41 1195.7 819.46 1195.7 820.758V1097.17C1195.7 1098.46 1194.65 1099.51 1193.35 1099.51Z" fill="black"></path><path d="M1004.7 672.404H843.5C842.203 672.404 841.152 671.354 841.152 670.056V418.679C841.152 372.94 878.362 335.73 924.101 335.73C969.839 335.73 1007.05 372.94 1007.05 418.679V670.056C1007.05 671.353 1006 672.404 1004.7 672.404ZM845.849 667.707H1002.35V418.679C1002.35 375.529 967.25 340.426 924.101 340.426C880.952 340.426 845.848 375.529 845.848 418.679L845.849 667.707Z" fill="black"></path><path d="M1004.7 534.388V461.762L976.571 474.858V444.426L855.97 579.679L948.956 521.069V556.01L1004.7 534.388Z" fill="black"></path><path d="M924.101 651.663C922.804 651.663 921.753 650.613 921.753 649.315V372.907C921.753 371.609 922.804 370.559 924.101 370.559C925.398 370.559 926.449 371.609 926.449 372.907V649.315C926.45 650.613 925.398 651.663 924.101 651.663Z" fill="black"></path><path d="M1273.95 672.404H1112.75C1111.46 672.404 1110.41 671.354 1110.41 670.056V418.679C1110.41 372.94 1147.62 335.73 1193.35 335.73C1239.09 335.73 1276.3 372.94 1276.3 418.679V670.056C1276.3 671.353 1275.25 672.404 1273.95 672.404ZM1115.1 667.707H1271.61V418.679C1271.61 375.529 1236.5 340.426 1193.35 340.426C1150.2 340.426 1115.1 375.529 1115.1 418.679V667.707H1115.1Z" fill="black"></path><path d="M1151.41 450.766L1179.73 476.126L1215.52 441.14V500.781L1265.96 518.815L1213.55 532.341L1235.1 593.205L1183.96 556.856L1131.55 593.205L1153.32 530.172L1113.41 509.517L1158.18 493.033L1151.41 450.766Z" fill="black"></path><path d="M1193.35 651.663C1192.06 651.663 1191.01 650.613 1191.01 649.315V372.907C1191.01 371.609 1192.06 370.559 1193.35 370.559C1194.65 370.559 1195.7 371.609 1195.7 372.907V649.315C1195.7 650.613 1194.65 651.663 1193.35 651.663Z" fill="black"></path><path d="M1038.69 1828.93H809.508C808.211 1828.93 807.16 1827.88 807.16 1826.58V1469.18C807.16 1404.7 859.62 1352.24 924.101 1352.24C988.582 1352.24 1041.04 1404.7 1041.04 1469.18V1826.58C1041.04 1827.88 1039.99 1828.93 1038.69 1828.93ZM811.857 1824.23H1036.35V1469.18C1036.35 1407.29 985.995 1356.94 924.102 1356.94C862.209 1356.94 811.857 1407.29 811.857 1469.18V1824.23Z" fill="black"></path><path d="M1038.7 1487.01L985.42 1539.09L938.442 1497.02L949.66 1567.14L875.402 1594.48L941.609 1628.75L905.487 1733.31L992.431 1673.01L1001.93 1775.71L1038.7 1680.4V1487.01Z" fill="black"></path><path d="M924.101 1793.5C922.804 1793.5 921.753 1792.45 921.753 1791.15V1404.11C921.753 1402.81 922.804 1401.76 924.101 1401.76C925.398 1401.76 926.449 1402.81 926.449 1404.11V1791.15C926.45 1792.45 925.398 1793.5 924.101 1793.5Z" fill="black"></path><path d="M693.177 1048.86C692.944 1047.33 693.524 1045.67 695.091 1044.35C696.899 1042.84 699.674 1042.32 701.892 1043.08C703.961 1043.79 705.114 1045.31 705.304 1046.98L709.921 1081.69C743.112 1164.45 808.007 1237.47 901.74 1287.24C1119.28 1402.75 1425.86 1341.64 1600.76 1166.24L1440.92 1059.65C1434.05 1053.92 1434.16 1043.96 1434.16 1043.96L1433.2 1013.86L1963.1 932.25C1975.24 930.416 1985.89 937.546 1986.16 947.699L1998.08 1393.53C1998.48 1408.66 1977.04 1418.34 1963.38 1409.19L1817.4 1311.39C1586.55 1502.44 1231.52 1549.31 966.457 1408.57C840.336 1341.6 754.414 1242.66 712.47 1130.73C703.285 1106.21 697.241 1080.78 693.945 1054.9L693.177 1048.86Z" fill="black"></path><path d="M1307.57 1457.38C1184.67 1457.38 1065.46 1429.27 964.257 1375.53C825.411 1301.81 729.513 1185.87 694.225 1049.06C694.205 1048.98 694.192 1048.9 694.179 1048.83C693.885 1046.89 694.444 1044.94 695.753 1043.33C698.433 1040.04 703.467 1039.02 707.221 1041.01C709.003 1041.95 710.25 1043.47 710.756 1045.27C710.856 1045.41 710.938 1045.56 711.001 1045.71C745.357 1131.38 811.314 1202.05 901.742 1250.06C1112.14 1361.77 1416.47 1309.63 1595.98 1131.49L1442.28 1028.52C1435.85 1024.21 1432.97 1017.38 1434.56 1010.26C1436.54 1001.42 1444.51 994.704 1454.88 993.138L1962.33 916.548C1969.61 915.452 1976.68 917.238 1981.71 921.46C1985.69 924.792 1987.95 929.337 1988.08 934.258L1999.33 1358.37C1999.52 1365.66 1995.22 1372.45 1987.83 1376.52C1979.12 1381.32 1968.58 1381.13 1960.97 1376.04L1816.45 1279.21C1703.62 1372.11 1557.2 1433.32 1403.94 1451.63C1371.74 1455.48 1339.52 1457.38 1307.57 1457.38ZM698.81 1048.03C733.793 1183.48 828.841 1298.32 966.46 1371.39C1224.58 1508.44 1581.36 1467.68 1814.81 1274.47C1815.61 1273.81 1816.75 1273.75 1817.61 1274.33L1963.59 1372.13C1969.75 1376.26 1978.37 1376.37 1985.56 1372.41C1991.39 1369.2 1994.78 1364 1994.63 1358.49L1983.39 934.382C1983.3 930.825 1981.63 927.516 1978.7 925.06C1974.75 921.753 1968.9 920.304 1963.03 921.194L1455.58 997.784C1445.99 999.231 1440.41 1005.61 1439.14 1011.28C1437.97 1016.52 1440.07 1021.38 1444.9 1024.61L1600.97 1129.18C1601.55 1129.57 1601.93 1130.21 1602 1130.9C1602.07 1131.6 1601.82 1132.29 1601.32 1132.79C1484.7 1249.75 1314.84 1313.42 1151.81 1313.43C1062.36 1313.43 974.975 1294.26 899.541 1254.21C808.348 1205.79 741.753 1134.54 706.907 1048.12C706.577 1047.77 706.351 1047.34 706.296 1046.86C706.216 1046.16 705.762 1045.55 705.019 1045.16C703.275 1044.24 700.644 1044.76 699.397 1046.3C698.951 1046.84 698.75 1047.44 698.81 1048.03Z" fill="black"></path><path d="M665.733 934.72C643.838 934.72 620.209 930.973 604.909 928.001C603.08 927.646 597.223 927.547 589.805 927.421C548.328 926.717 438.152 924.85 421.639 870.742C418.218 859.526 401.508 802.542 408.606 782.095C415.805 761.358 425.338 749.127 436.941 745.74C446.428 742.974 456.936 746.07 468.173 754.949C480.64 764.798 489.069 778.933 491.91 794.751C494.093 806.909 498.626 824.917 507.824 841.668C524.555 872.139 587.371 884.887 609.885 884.887C609.962 884.887 610.036 884.887 610.112 884.887C613.15 884.876 619.76 879.872 626.154 875.033C637.833 866.191 652.36 855.188 663.835 858.814C667.094 859.841 668.324 861.806 668.781 863.274C670.39 868.429 665.089 875.26 660.831 880.748C659.98 881.842 658.925 883.204 658.234 884.206C666.107 887.542 673.805 887.384 681.265 887.231C682.67 887.203 684.065 887.176 685.451 887.169C694.842 887.128 703.831 885.495 710.396 884.303C714.689 883.523 718.08 882.907 720.475 882.893C724.097 882.849 727.215 884.429 729.064 887.284C731.325 890.772 731.443 895.773 729.37 900.332C726.113 907.493 716.586 924.777 698.519 930.599C689.219 933.594 677.738 934.72 665.733 934.72ZM443.813 749.461C441.904 749.461 440.052 749.722 438.257 750.247C428.198 753.182 419.715 764.416 413.044 783.635C406.283 803.11 424.08 862.647 426.132 869.37C441.647 920.211 549.342 922.038 589.886 922.724C598.127 922.864 603.571 922.958 605.805 923.391C629.05 927.904 671.818 934.263 697.08 926.124C713.363 920.877 722.097 904.977 725.096 898.384C726.49 895.316 726.501 891.961 725.124 889.833C724.156 888.343 722.619 887.586 720.553 887.586C720.537 887.586 720.52 887.586 720.503 887.586C718.517 887.597 715.143 888.21 711.236 888.921C704.501 890.145 695.277 891.822 685.473 891.863C684.112 891.87 682.741 891.897 681.361 891.925C672.788 892.09 663.934 892.278 654.436 887.632C653.681 887.263 653.138 886.582 652.948 885.763C652.499 883.823 654.043 881.833 657.121 877.866C659.936 874.238 665.177 867.485 664.298 864.671C664.23 864.455 664.025 863.795 662.42 863.288C653.275 860.412 639.805 870.589 628.989 878.776C621.026 884.802 614.737 889.563 610.131 889.581C610.049 889.581 609.96 889.581 609.877 889.581C585.788 889.583 521.623 876.554 503.709 843.927C494.205 826.619 489.533 808.081 487.288 795.579C484.651 780.891 476.828 767.77 465.262 758.63C457.54 752.532 450.351 749.461 443.813 749.461Z" fill="black"></path><path d="M357.064 1160.69C274.82 1160.69 151.706 1147.02 144.379 1146.2C143.753 1146.13 143.182 1145.81 142.795 1145.32C142.406 1144.82 142.232 1144.19 142.312 1143.57C151.206 1074.03 169.631 929.993 163.263 842.242L95.4061 846.51C94.1041 846.581 93.0201 845.632 92.9181 844.357C92.8881 843.99 90.0471 807.175 99.2231 766.309C111.445 711.873 139.321 674.927 179.837 659.467C272.434 624.135 388.31 627.999 449.368 668.45C480.837 689.299 508.518 811.058 509.681 816.231C509.906 817.229 509.459 818.256 508.577 818.774L438.325 859.903C438.069 876.441 435.418 1042.74 430.862 1145.44C430.766 1147.61 429.721 1149.57 427.757 1151.24C419.6 1158.22 392.014 1160.69 357.064 1160.69ZM147.273 1141.8C235.695 1151.63 404.231 1165.18 424.705 1147.67C426.115 1146.47 426.156 1145.54 426.17 1145.23C430.942 1037.68 433.623 860.292 433.649 858.512C433.662 857.691 434.102 856.933 434.81 856.518L504.713 815.593C501.228 800.669 474.775 690.916 446.774 672.365C386.863 632.669 272.826 629.011 181.511 663.855C93.7101 697.358 96.5411 823.053 97.4621 841.675L165.282 837.41C166.589 837.373 167.671 838.293 167.771 839.57C174.601 926.588 156.376 1070.62 147.273 1141.8Z" fill="black"></path><path d="M173.089 840.259C171.848 840.259 170.812 839.287 170.747 838.035C170.679 836.739 171.673 835.634 172.969 835.565L196.54 834.331C196.65 776.338 194.105 766.324 193.995 765.923C193.657 764.682 194.373 763.389 195.608 763.034C196.843 762.672 198.129 763.369 198.501 764.598C198.62 764.992 201.417 774.974 201.231 836.567C201.228 837.814 200.251 838.839 199.006 838.906L173.215 840.257C173.172 840.259 173.13 840.259 173.089 840.259Z" fill="black"></path><path d="M151.354 1044.34C186.136 1044.34 221.889 1017.45 224.351 982.76L239.171 773.872C239.262 766.94 244.907 761.368 251.839 761.368H401.212C408.155 761.368 413.804 766.956 413.88 773.898L413.536 1028.07C413.52 1040.3 423.771 1050.31 435.998 1050.58L282.617 1131.31L151.354 1044.34Z" fill="black"></path><path d="M269.804 788.389C269.578 788.389 269.351 788.384 269.123 788.374C261.933 788.045 256.404 782.602 256.773 776.214C260.47 712.341 244.448 683.889 230.357 671.267C221.731 663.542 207.441 657.181 199.262 653.929C197.1 653.07 197.145 650.007 199.326 649.199C203.91 647.503 209.936 645.345 213.671 644.294C216.612 643.466 230.448 638.086 248.868 654.961C274.49 678.434 286.172 719.339 282.811 777.405C282.454 783.59 276.695 788.389 269.804 788.389Z" fill="black"></path><path d="M387.207 792.913C387.014 792.85 386.821 792.782 386.629 792.706C381.023 790.518 373.692 782.6 375.898 776.862C408.871 691.101 398.983 654.918 390.915 641.414C389.728 639.427 391.763 637.084 393.907 637.957C397.78 639.535 406.586 642.788 409.05 643.93C417.413 647.806 440.992 666.717 400.803 786.293C398.911 791.92 392.665 794.694 387.207 792.913Z" fill="black"></path><path d="M313.012 975.054C310.248 975.054 307.637 973.747 305.981 971.523C304.27 969.223 303.793 966.226 304.705 963.506L361.778 793.43C362.937 789.977 366.162 787.578 369.802 787.461L509.069 782.999C511.985 782.839 514.668 784.228 516.379 786.526C518.09 788.828 518.567 791.823 517.655 794.543L460.582 964.618C459.424 968.069 456.2 970.47 452.558 970.587C452.557 970.587 452.557 970.587 452.557 970.587L313.292 975.049C313.198 975.054 313.105 975.054 313.012 975.054ZM509.356 787.69C509.31 787.69 509.265 787.69 509.22 787.69L369.955 792.152C368.266 792.207 366.77 793.321 366.232 794.924L309.159 965C308.729 966.28 308.945 967.635 309.751 968.719C310.557 969.801 311.795 970.352 313.142 970.356L452.405 965.894C454.096 965.839 455.591 964.724 456.128 963.122L513.203 793.046C513.633 791.766 513.417 790.411 512.611 789.329C511.833 788.282 510.652 787.69 509.356 787.69Z" fill="black"></path><path d="M412.319 805.275C410.69 805.275 409.15 804.504 408.174 803.191C407.166 801.836 406.885 800.07 407.422 798.467L414.618 774.91C415.321 772.812 417.222 771.399 419.368 771.333L480.498 769.375C482.194 769.29 483.795 770.093 484.805 771.45C485.815 772.805 486.097 774.573 485.559 776.176L478.364 799.733C477.659 801.831 475.758 803.244 473.613 803.312L412.483 805.27C412.428 805.273 412.374 805.275 412.319 805.275ZM480.669 774.066C480.662 774.066 480.656 774.066 480.651 774.066L419.518 776.024C419.323 776.031 419.152 776.159 419.091 776.343L411.895 799.9C411.811 800.152 411.877 800.299 411.943 800.388C412.011 800.477 412.136 800.553 412.333 800.578L473.464 798.617C473.464 798.617 473.466 798.617 473.466 798.615C473.659 798.61 473.831 798.482 473.893 798.296L481.086 774.741C481.17 774.489 481.104 774.342 481.038 774.253C480.974 774.167 480.858 774.066 480.669 774.066Z" fill="black"></path><path d="M161.799 957.731C146.243 957.731 134.213 956.474 128.434 953.335C107.994 942.225 106.154 851.206 106.012 840.864C105.995 839.596 106.988 838.543 108.255 838.486L182.439 835.138C183.072 835.083 183.696 835.34 184.159 835.78C184.622 836.218 184.887 836.826 184.893 837.463C185.134 864.364 187.341 895.16 190.504 898.808C214.685 902.766 263.745 902.862 295.803 898.987C306.031 897.756 314.224 889.984 316.187 879.654L316.399 878.521C318.01 869.885 320.444 856.833 335.629 852.297C337.582 851.714 340.426 851.128 342.55 852.779C345.077 854.74 344.935 858.358 344.755 862.94C344.528 868.694 344.247 875.855 348.837 881.977C353.68 888.434 372.284 884.74 394.291 879.643C407.497 876.593 414.812 882.127 417.258 888.334C420.561 896.72 416.332 910.233 399.239 920.085C375.537 933.743 358.857 935.435 347.82 936.554C345.023 936.838 342.61 937.084 340.715 937.485C331.311 939.473 221.051 957.731 161.799 957.731ZM110.748 843.075C111.325 871.966 115.817 941.131 130.678 949.207C155.316 962.601 320.58 936.943 339.742 932.889C341.884 932.437 344.414 932.18 347.345 931.882C357.985 930.802 374.062 929.171 396.892 916.016C411.575 907.554 415.477 896.628 412.888 890.056C410.685 884.463 403.969 882.22 395.35 884.22C370.057 890.079 351.644 893.548 345.08 884.793C339.488 877.338 339.82 868.908 340.062 862.756C340.147 860.591 340.29 856.968 339.671 856.489C339.666 856.484 339.113 856.159 336.973 856.796C324.535 860.513 322.584 870.974 321.016 879.383L320.8 880.529C318.453 892.88 308.634 902.172 296.365 903.651C263.81 907.579 213.831 907.458 189.41 903.387C186.361 902.878 183.225 899.805 181.316 869.004C180.573 856.999 180.312 844.958 180.229 839.939L110.748 843.075Z" fill="black"></path><path d="M168.818 1798.71C168.689 1798.71 168.558 1798.7 168.427 1798.68L129.865 1792.18C128.783 1791.99 127.971 1791.08 127.911 1789.99L124.782 1732.31C124.713 1731.05 125.664 1729.95 126.927 1729.85L172.049 1726C172.725 1725.93 173.393 1726.18 173.88 1726.65C174.367 1727.12 174.627 1727.78 174.593 1728.46L171.162 1796.48C171.129 1797.15 170.81 1797.77 170.287 1798.19C169.868 1798.53 169.349 1798.71 168.818 1798.71ZM132.498 1787.85L166.606 1793.61L169.767 1730.9L129.595 1734.33L132.498 1787.85Z" fill="black"></path><path d="M133.201 1898.5C121.825 1898.5 109.135 1897.66 95.6291 1895.09C90.1451 1894.05 85.3391 1890.71 82.4431 1885.95C79.5581 1881.19 78.8201 1875.42 80.4161 1870.1L82.1941 1864.14C90.6361 1835.75 104.766 1788.23 125.166 1765.97C125.711 1765.37 126.517 1765.1 127.313 1765.24C128.106 1765.38 128.77 1765.92 129.073 1766.67L132.135 1774.22L136.939 1767.56C138.28 1765.4 140.741 1763.91 143.432 1763.71L158.756 1762.55C163.139 1762.18 167.119 1765.36 167.808 1769.7L167.939 1771.76L174.569 1765.32C175.233 1764.68 176.215 1764.48 177.072 1764.83C177.932 1765.17 178.51 1765.98 178.55 1766.91L181.169 1827.88C181.68 1839.78 183.024 1848.78 185.174 1860.31L187.874 1874.78C187.889 1874.86 187.9 1874.94 187.906 1875.03C188.774 1885.76 180.787 1895.27 170.101 1896.23L165.749 1896.63C157.021 1897.45 145.935 1898.5 133.201 1898.5ZM126.164 1771.99C107.792 1794.53 94.6691 1838.66 86.6951 1865.48L84.9141 1871.45C83.6991 1875.49 84.2621 1879.89 86.4571 1883.51C88.6631 1887.14 92.3261 1889.68 96.5071 1890.48C124.474 1895.8 149.048 1893.49 165.308 1891.95L169.681 1891.55C177.771 1890.82 183.828 1883.65 183.234 1875.52L180.557 1861.16C178.368 1849.44 176.999 1840.26 176.476 1828.08L174.082 1772.34L167.556 1778.67C166.897 1779.31 165.926 1779.5 165.074 1779.17C164.22 1778.84 163.635 1778.05 163.578 1777.13L163.146 1770.22C162.862 1768.49 161.076 1767.1 159.112 1767.23L143.786 1768.39C142.579 1768.48 141.477 1769.15 140.837 1770.17L133.46 1780.41C132.959 1781.1 132.123 1781.47 131.275 1781.37C130.426 1781.27 129.701 1780.71 129.38 1779.92L126.164 1771.99Z" fill="black"></path><path d="M134.827 1880.9C122.082 1880.9 107.491 1879.62 93.0991 1875.57C91.8501 1875.21 91.1231 1873.92 91.4751 1872.67C91.8271 1871.42 93.1211 1870.7 94.3711 1871.04C131.896 1881.61 172.235 1872.49 172.64 1872.4C173.894 1872.1 175.165 1872.89 175.457 1874.16C175.749 1875.42 174.964 1876.68 173.7 1876.98C172.638 1877.22 156.372 1880.9 134.827 1880.9Z" fill="black"></path><path d="M155.071 1838.19C155.057 1838.19 155.042 1838.19 155.029 1838.19L118.608 1837.55C117.311 1837.53 116.279 1836.46 116.301 1835.16C116.324 1833.87 117.427 1832.84 118.69 1832.85L155.11 1833.49C156.407 1833.51 157.439 1834.58 157.417 1835.88C157.396 1837.16 156.349 1838.19 155.071 1838.19Z" fill="black"></path><path d="M358.633 1799.52C358.593 1799.52 358.553 1799.52 358.513 1799.51L311.835 1797.16C310.602 1797.1 309.629 1796.09 309.605 1794.86L308.014 1710.84C308.003 1710.19 308.261 1709.57 308.728 1709.11C309.195 1708.66 309.833 1708.4 310.48 1708.45L365.141 1711.21C365.774 1711.24 366.367 1711.53 366.785 1712C367.204 1712.48 367.412 1713.1 367.364 1713.73L360.972 1797.35C360.878 1798.58 359.852 1799.52 358.633 1799.52ZM314.259 1792.58L356.464 1794.71L362.498 1715.78L312.757 1713.27L314.259 1792.58Z" fill="black"></path><path d="M429.036 1890.67C423.425 1890.67 417.82 1890.16 412.464 1889.08C395.173 1885.61 334.276 1868.32 308.896 1861.04C300.276 1858.58 294.445 1850.28 295.032 1841.31C297.638 1801.42 304.869 1772.87 304.942 1772.59C305.117 1771.91 305.588 1771.34 306.225 1771.04C306.865 1770.75 307.601 1770.75 308.234 1771.05L338.962 1785.82C344.596 1778.19 362.058 1755.93 372.847 1758C379.004 1759.16 387.41 1767.99 399.044 1780.2C409.859 1791.55 422.12 1804.41 434.968 1813.38C449.126 1823.26 478.833 1849.02 480.3 1865.59C480.633 1869.36 479.567 1872.5 477.134 1874.94C467.344 1884.73 448.148 1890.67 429.036 1890.67ZM308.827 1776.55C306.987 1784.6 301.827 1809.33 299.719 1841.62C299.275 1848.39 303.678 1854.67 310.189 1856.53C335.514 1863.79 396.266 1881.04 413.387 1884.48C435.599 1888.94 462.143 1883.29 473.81 1871.61C475.235 1870.19 475.828 1868.35 475.62 1866.01C474.385 1852.05 446.783 1827.36 432.279 1817.23C419.043 1808 406.611 1794.95 395.643 1783.44C385.872 1773.18 376.645 1763.5 371.97 1762.61C365.518 1761.32 350.347 1777.98 341.615 1790.16C340.951 1791.08 339.715 1791.39 338.69 1790.91L308.827 1776.55Z" fill="black"></path><path d="M430.481 1869.14C385.634 1869.14 318.225 1844.51 314.662 1843.2C313.446 1842.75 312.823 1841.4 313.272 1840.18C313.72 1838.96 315.076 1838.34 316.287 1838.79C317.365 1839.19 424.44 1878.32 456.944 1859.28C458.061 1858.62 459.502 1859 460.157 1860.11C460.813 1861.23 460.437 1862.67 459.318 1863.33C452.231 1867.48 442.112 1869.14 430.481 1869.14Z" fill="black"></path><path d="M375.721 1821.85C375.04 1821.85 374.363 1821.55 373.899 1820.98C373.08 1819.98 373.232 1818.5 374.237 1817.68L399.058 1797.46C400.064 1796.64 401.541 1796.79 402.361 1797.8C403.18 1798.8 403.028 1800.28 402.023 1801.1L377.202 1821.32C376.767 1821.68 376.243 1821.85 375.721 1821.85Z" fill="black"></path><path d="M151.354 1044.34C151.354 1044.34 115.292 1416.17 103.167 1506.14C91.0421 1596.1 108.987 1742.61 108.987 1742.61L181.228 1742.46C181.228 1742.46 191.434 1612.45 199.273 1544.82C201.195 1528.24 205.786 1512.1 212.751 1496.93C223.692 1473.09 240.843 1432.03 248.692 1393.58C260.702 1334.75 296.151 1242.65 296.151 1242.65C296.151 1242.65 297.533 1711.33 298.086 1748.17C298.086 1748.17 354.458 1753.53 375.357 1741.81C375.357 1741.81 419.843 1573.19 419.366 1480.2C419.135 1435.29 424.02 1336.48 429.133 1246.3C434.608 1149.73 435.999 1050.58 435.999 1050.58L151.354 1044.34Z" fill="black"></path><path d="M323.42 601.173C316.533 607.137 303.151 613.99 292.867 607.58C285.21 602.808 281.07 591.802 281.535 579.645C277.955 579.645 273.269 578.974 269.975 575.564C264.903 570.316 266.01 561.561 266.306 555.77C267.672 529.042 252.981 523.654 256.888 505.773C259.958 491.72 270.74 484.122 272.756 482.701C282.935 475.527 289.7 478.712 306.667 475.503C335.222 470.104 336.337 457.253 355.067 458.813C356.15 458.904 381.633 461.404 389.982 480.733C396.771 496.454 388.255 514.11 379.601 523.025C368.396 534.57 360.597 527.712 349.385 537.238C329.702 553.959 343.879 583.458 323.42 601.173Z" fill="black"></path><path d="M329.111 666.52C296.377 666.522 272.409 649.496 272.058 649.239C271.352 648.725 270.988 647.863 271.115 646.999C271.241 646.137 271.836 645.415 272.661 645.126L284.104 641.111C295.012 637.279 302.436 627.343 303.019 615.795L305.914 577.355C301.854 575.436 298.547 571.847 296.69 567.277C293.118 558.483 293.988 546.203 300.975 541.938C306.028 538.854 310.08 538.223 313.201 538.526C312.217 536.717 311.134 534.476 309.944 531.709C309.117 529.783 309.513 528.258 309.991 527.318C311.743 523.874 317.312 522.601 323.761 521.129C328.121 520.134 335.42 518.467 335.613 516.476C336.827 503.907 342.703 496.037 351.33 495.423C360.693 494.726 372.532 503.814 377.049 522.411C378.934 530.178 385.215 541.212 390.763 546.507C392.658 548.316 393.727 550.857 393.696 553.478C393.664 556.099 392.535 558.612 390.596 560.376L384.879 565.572C386.232 589.469 378.511 605.158 363.606 608.689C360.939 609.32 358.073 609.54 355.048 609.333L354.882 613.332C354.643 625.979 361.797 637.914 373.107 643.688L380.03 647.222C380.781 647.605 381.27 648.362 381.308 649.206C381.347 650.048 380.931 650.846 380.218 651.297C362.265 662.661 344.693 666.52 329.111 666.52ZM278.797 647.949C291.251 655.227 331.218 674.283 374.138 649.488L370.97 647.871C358.07 641.285 349.912 627.673 350.186 613.192L350.458 606.645C350.486 605.982 350.792 605.363 351.3 604.939C351.809 604.513 352.468 604.32 353.13 604.416C356.522 604.893 359.683 604.792 362.524 604.118C375.203 601.114 381.618 586.764 380.123 564.75C380.074 564.034 380.355 563.337 380.885 562.854L387.435 556.899C388.428 555.998 388.983 554.762 388.999 553.42C389.015 552.079 388.49 550.829 387.52 549.905C381.326 543.993 374.582 532.156 372.485 523.52C368.624 507.624 358.811 499.672 351.662 500.107C345.514 500.545 341.262 506.833 340.287 516.929C339.768 522.29 332.501 523.948 324.806 525.705C320.873 526.604 314.932 527.961 314.177 529.445C314.135 529.528 314.198 529.713 314.259 529.856C317.288 536.907 319.345 539.728 320.315 540.792C321.644 540.941 322.719 541.943 322.831 543.255C322.928 544.404 322.066 545.589 320.948 545.869C320.43 546.002 319.398 546.257 317.76 544.856C317.584 544.776 317.403 544.691 317.219 544.604C314.778 543.448 310.692 541.511 303.421 545.948C298.686 548.84 298.258 558.659 301.04 565.511C302.617 569.389 305.645 572.416 309.14 573.606C310.154 573.95 310.805 574.936 310.725 576.005L307.705 616.093C307.031 629.494 298.376 641.079 285.66 645.544L278.797 647.949Z" fill="black"></path><path d="M352.806 609.089C352.65 609.089 352.491 609.073 352.331 609.041C331.025 604.666 322.199 587.786 321.834 587.068C321.246 585.912 321.704 584.5 322.86 583.91C324.017 583.321 325.425 583.777 326.016 584.93C326.096 585.086 334.248 600.532 353.276 604.44C354.546 604.701 355.365 605.942 355.104 607.212C354.876 608.323 353.898 609.089 352.806 609.089Z" fill="black"></path><path d="M374.924 475.531C374.29 475.531 373.658 475.276 373.196 474.774C332.652 430.762 278.42 460.827 276.128 462.128C275.172 462.671 273.965 462.479 273.227 461.665L263.083 450.475C262.212 449.514 262.285 448.028 263.246 447.157C264.208 446.288 265.692 446.359 266.562 447.32L275.489 457.169C285.472 452.186 337.637 429.243 376.649 471.593C377.528 472.547 377.467 474.033 376.514 474.911C376.063 475.325 375.493 475.531 374.924 475.531Z" fill="black"></path><path d="M261.36 575.997C261.062 575.997 260.762 575.94 260.477 575.825C259.759 575.534 259.231 574.908 259.066 574.151L254.249 552.1L254.066 551.845C253.707 551.354 253.351 550.863 253.011 550.35C228.026 512.646 238.373 461.645 276.076 436.659C313.782 411.675 364.783 422.022 389.768 459.723C390.302 460.528 390.807 461.344 391.3 462.165L425.097 462.823C426.124 462.844 427.019 463.529 427.306 464.515C427.593 465.501 427.204 466.56 426.348 467.129L262.657 575.607C262.267 575.864 261.815 575.997 261.36 575.997ZM321.271 427.729C306.605 427.729 291.785 431.886 278.669 440.577C243.125 464.132 233.371 512.212 256.926 547.757C257.227 548.213 257.544 548.647 257.86 549.08L258.35 549.756C258.535 550.015 258.665 550.309 258.733 550.618L262.921 569.795L417.479 467.373L389.901 466.836C389.086 466.82 388.337 466.382 387.923 465.678C387.258 464.55 386.586 463.424 385.854 462.319C370.989 439.889 346.357 427.729 321.271 427.729Z" fill="black"></path></svg>