<svg xmlns="http://www.w3.org/2000/svg" width="151" height="44" viewBox="0 0 151 44" fill="none"><g clip-path="url(#clip0_20_164)"><path fill-rule="evenodd" clip-rule="evenodd" d="M10 2C15.5228 2 20 6.47715 20 12V2H30C35.5228 2 40 6.47715 40 12C40 17.5228 35.5228 22 30 22C35.5228 22 40 26.4772 40 32C40 34.7423 38.8961 37.2268 37.1085 39.0334L37.0711 39.0711L37.0379 39.1041C35.2309 40.8943 32.7446 42 30 42C27.2741 42 24.8029 40.9093 22.999 39.1405C22.9756 39.1175 22.9522 39.0943 22.9289 39.0711C22.907 39.0492 22.8852 39.0272 22.8635 39.0051C21.0924 37.2009 20 34.728 20 32C20 37.5228 15.5228 42 10 42C4.47715 42 0 37.5228 0 32V22H10C4.47715 22 0 17.5228 0 12C0 6.47715 4.47715 2 10 2ZM18 12C18 16.4183 14.4183 20 10 20V4C14.4183 4 18 7.58172 18 12ZM38 32C38 27.5817 34.4183 24 30 24C25.5817 24 22 27.5817 22 32H38ZM2 24V32C2 36.4183 5.58172 40 10 40C14.4183 40 18 36.4183 18 32V24H2ZM22 20V4H30C34.4183 4 38 7.58172 38 12C38 16.4183 34.4183 20 30 20H22Z" fill="black"></path></g><path d="M55.871 17C55.5584 17 55.2457 16.8437 54.933 16.531C54.6328 16.2058 54.3577 15.8056 54.1075 15.3303C53.8699 14.855 53.5885 14.3422 53.2633 13.7919C52.9381 13.2291 52.6129 12.7038 52.2878 12.216C51.9626 11.7283 51.5498 11.3155 51.0496 10.9778C50.5493 10.6401 50.0177 10.4588 49.4549 10.4338V12.7601C49.4549 14.1109 49.4924 15.0301 49.5675 15.5179C49.655 15.9932 49.7738 16.2933 49.9239 16.4184C50.2241 16.6561 50.6868 16.7749 51.3122 16.7749L51.3497 17H46.3219L46.3594 16.7749C46.9722 16.7749 47.4225 16.6623 47.7102 16.4372C47.9478 16.2496 48.0854 15.6367 48.1229 14.5986C48.1479 14.1859 48.1604 13.5731 48.1604 12.7601V8.01364C48.1604 6.62535 48.1229 5.70608 48.0478 5.25583C47.9728 4.80557 47.8602 4.52416 47.7102 4.4116C47.4225 4.19898 46.9722 4.09267 46.3594 4.09267L46.3219 3.86754H50.6743C53.8261 3.86754 55.402 4.93064 55.402 7.05685C55.402 7.96987 55.0768 8.73906 54.4265 9.36441C53.7886 9.97726 53.0132 10.3337 52.1002 10.4338C53.0132 10.9716 53.8574 11.9596 54.6328 13.398C54.933 13.9608 55.2519 14.4986 55.5896 15.0114C56.3276 16.187 57.2781 16.7749 58.4413 16.7749L58.4788 17H55.871ZM49.4549 4.29903V10.0586H50.6368C51.5874 10.0586 52.3753 9.81467 53.0007 9.32689C53.626 8.83911 53.9387 8.1137 53.9387 7.15065C53.9387 5.24957 52.8506 4.29903 50.6743 4.29903H49.4549ZM65.8778 12.2536H59.7243V12.5725C59.7243 13.8982 60.0057 14.9113 60.5685 15.6117C61.1314 16.2996 61.8318 16.6435 62.6697 16.6435C63.9204 16.6435 64.821 16.1433 65.3713 15.1427L65.6527 15.2928C65.0023 16.556 63.9142 17.1876 62.3883 17.1876C61.2627 17.1876 60.2996 16.7811 59.4992 15.9682C58.6987 15.1552 58.2985 14.0608 58.2985 12.685C58.2985 11.2968 58.6487 10.1586 59.3491 9.27061C60.062 8.3826 61.0063 7.9386 62.182 7.9386C63.3701 7.9386 64.2831 8.34508 64.921 9.15804C65.5589 9.9585 65.8778 10.9903 65.8778 12.2536ZM62.2382 8.31381C61.5128 8.31381 60.9375 8.62649 60.5123 9.25185C60.0995 9.8647 59.8494 10.6839 59.7618 11.7095H64.4332C64.3457 9.44571 63.614 8.31381 62.2382 8.31381ZM69.8014 9.19557C69.8014 9.77089 70.0953 10.7965 70.6832 12.2723L72.1277 15.9119L73.5911 11.4093C73.8787 10.5088 74.0226 9.82717 74.0226 9.36441C74.0226 8.68903 73.5848 8.35134 72.7093 8.35134L72.6718 8.12621H76.1988L76.1613 8.35134C75.6485 8.35134 75.2858 8.52018 75.0732 8.85787C74.8731 9.18306 74.4916 10.2024 73.9288 11.9159L72.2403 17.0563H71.1334L68.6945 10.8277C68.2818 9.77715 67.9066 9.10176 67.5689 8.80159C67.2437 8.50142 66.8497 8.35134 66.387 8.35134L66.3495 8.12621H71.0021L70.9646 8.35134C70.5268 8.35134 70.2204 8.42012 70.0453 8.5577C69.8827 8.69528 69.8014 8.9079 69.8014 9.19557ZM78.5064 5.68732C78.2937 5.4747 78.1874 5.22456 78.1874 4.9369C78.1874 4.64923 78.2937 4.39909 78.5064 4.18647C78.719 3.97385 78.9691 3.86754 79.2568 3.86754C79.5445 3.86754 79.7946 3.97385 80.0072 4.18647C80.2198 4.39909 80.3262 4.64923 80.3262 4.9369C80.3262 5.22456 80.2198 5.4747 80.0072 5.68732C79.7946 5.89994 79.5445 6.00625 79.2568 6.00625C78.9691 6.00625 78.719 5.89994 78.5064 5.68732ZM79.9697 7.9386V13.9045C79.9697 15.2177 80.0447 16.0244 80.1948 16.3246C80.3574 16.6248 80.8077 16.7749 81.5456 16.7749L81.5831 17H77.0055L77.043 16.7749C77.7935 16.7749 78.25 16.6248 78.4126 16.3246C78.5752 16.0119 78.6565 15.1927 78.6565 13.867V12.5537C78.6565 11.1029 78.6127 10.1461 78.5251 9.68334C78.4501 9.20807 78.3375 8.90165 78.1874 8.76407C77.8873 8.48891 77.4245 8.35134 76.7991 8.35134L76.7616 8.14497C77.8497 8.00739 78.9191 7.9386 79.9697 7.9386ZM85.1361 9.19557C85.1361 9.77089 85.43 10.7965 86.0178 12.2723L87.4624 15.9119L88.9257 11.4093C89.2134 10.5088 89.3572 9.82717 89.3572 9.36441C89.3572 8.68903 88.9195 8.35134 88.044 8.35134L88.0064 8.12621H91.5334L91.4959 8.35134C90.9831 8.35134 90.6204 8.52018 90.4078 8.85787C90.2077 9.18306 89.8262 10.2024 89.2634 11.9159L87.5749 17.0563H86.4681L84.0292 10.8277C83.6164 9.77715 83.2412 9.10176 82.9035 8.80159C82.5784 8.50142 82.1844 8.35134 81.7216 8.35134L81.6841 8.12621H86.3367L86.2992 8.35134C85.8615 8.35134 85.5551 8.42012 85.38 8.5577C85.2174 8.69528 85.1361 8.9079 85.1361 9.19557ZM99.68 12.2536H93.5265V12.5725C93.5265 13.8982 93.8079 14.9113 94.3707 15.6117C94.9335 16.2996 95.6339 16.6435 96.4719 16.6435C97.7226 16.6435 98.6231 16.1433 99.1734 15.1427L99.4548 15.2928C98.8045 16.556 97.7164 17.1876 96.1905 17.1876C95.0648 17.1876 94.1018 16.7811 93.3013 15.9682C92.5009 15.1552 92.1007 14.0608 92.1007 12.685C92.1007 11.2968 92.4509 10.1586 93.1513 9.27061C93.8642 8.3826 94.8085 7.9386 95.9841 7.9386C97.1723 7.9386 98.0853 8.34508 98.7232 9.15804C99.361 9.9585 99.68 10.9903 99.68 12.2536ZM96.0404 8.31381C95.315 8.31381 94.7397 8.62649 94.3144 9.25185C93.9017 9.8647 93.6515 10.6839 93.564 11.7095H98.2354C98.1479 9.44571 97.4162 8.31381 96.0404 8.31381ZM55.871 39C55.5584 39 55.2457 38.8437 54.933 38.531C54.6328 38.2058 54.3577 37.8056 54.1075 37.3303C53.8699 36.855 53.5885 36.3422 53.2633 35.7919C52.9381 35.2291 52.6129 34.7038 52.2878 34.216C51.9626 33.7283 51.5498 33.3155 51.0496 32.9778C50.5493 32.6401 50.0177 32.4588 49.4549 32.4338V34.7601C49.4549 36.1109 49.4924 37.0301 49.5675 37.5179C49.655 37.9932 49.7738 38.2933 49.9239 38.4184C50.2241 38.6561 50.6868 38.7749 51.3122 38.7749L51.3497 39H46.3219L46.3594 38.7749C46.9722 38.7749 47.4225 38.6623 47.7102 38.4372C47.9478 38.2496 48.0854 37.6367 48.1229 36.5986C48.1479 36.1859 48.1604 35.5731 48.1604 34.7601V30.0136C48.1604 28.6254 48.1229 27.7061 48.0478 27.2558C47.9728 26.8056 47.8602 26.5242 47.7102 26.4116C47.4225 26.199 46.9722 26.0927 46.3594 26.0927L46.3219 25.8675H50.6743C53.8261 25.8675 55.402 26.9306 55.402 29.0568C55.402 29.9699 55.0768 30.7391 54.4265 31.3644C53.7886 31.9773 53.0132 32.3337 52.1002 32.4338C53.0132 32.9716 53.8574 33.9596 54.6328 35.398C54.933 35.9608 55.2519 36.4986 55.5896 37.0114C56.3276 38.187 57.2781 38.7749 58.4413 38.7749L58.4788 39H55.871ZM49.4549 26.299V32.0586H50.6368C51.5874 32.0586 52.3753 31.8147 53.0007 31.3269C53.626 30.8391 53.9387 30.1137 53.9387 29.1507C53.9387 27.2496 52.8506 26.299 50.6743 26.299H49.4549ZM65.8778 34.2536H59.7243V34.5725C59.7243 35.8982 60.0057 36.9113 60.5685 37.6117C61.1314 38.2996 61.8318 38.6435 62.6697 38.6435C63.9204 38.6435 64.821 38.1433 65.3713 37.1427L65.6527 37.2928C65.0023 38.556 63.9142 39.1876 62.3883 39.1876C61.2627 39.1876 60.2996 38.7811 59.4992 37.9682C58.6987 37.1552 58.2985 36.0608 58.2985 34.685C58.2985 33.2968 58.6487 32.1586 59.3491 31.2706C60.062 30.3826 61.0063 29.9386 62.182 29.9386C63.3701 29.9386 64.2831 30.3451 64.921 31.158C65.5589 31.9585 65.8778 32.9903 65.8778 34.2536ZM62.2382 30.3138C61.5128 30.3138 60.9375 30.6265 60.5123 31.2518C60.0995 31.8647 59.8494 32.6839 59.7618 33.7095H64.4332C64.3457 31.4457 63.614 30.3138 62.2382 30.3138ZM70.5894 29.9386V33.2968C70.7019 32.3962 71.0146 31.6146 71.5274 30.9517C72.0402 30.2763 72.7218 29.9386 73.5723 29.9386C75.4859 29.9386 76.4427 30.9392 76.4427 32.9403V35.9045C76.4427 37.2052 76.524 38.0119 76.6866 38.3246C76.8617 38.6248 77.3119 38.7749 78.0374 38.7749L78.0749 39H73.516L73.5536 38.7749C74.304 38.7749 74.7542 38.6185 74.9043 38.3059C75.0544 37.9932 75.1294 37.1364 75.1294 35.7356V33.1279C75.1294 32.2649 74.9919 31.6146 74.7167 31.1768C74.4541 30.7391 74.0288 30.5202 73.441 30.5202C72.8657 30.5202 72.3841 30.7203 71.9964 31.1205C71.6087 31.5082 71.321 32.0023 71.1334 32.6026C70.7707 33.7658 70.5894 34.9352 70.5894 36.1109C70.5894 37.2865 70.6644 38.0244 70.8145 38.3246C70.9771 38.6248 71.4273 38.7749 72.1653 38.7749L72.2028 39H67.6252L67.6627 38.7749C68.4131 38.7749 68.8696 38.6248 69.0322 38.3246C69.1948 38.0119 69.2761 37.1927 69.2761 35.867V34.3661C69.2761 32.4901 69.1823 31.3582 68.9947 30.9704C68.9322 30.8329 68.8196 30.7078 68.657 30.5952C68.5069 30.4827 68.3381 30.4139 68.1505 30.3889C67.9754 30.3638 67.7315 30.3513 67.4188 30.3513L67.3813 30.145C68.4694 30.0074 69.5388 29.9386 70.5894 29.9386ZM79.3859 34.5725C79.3859 33.2592 79.7611 32.1586 80.5116 31.2706C81.262 30.3826 82.2813 29.9386 83.5695 29.9386C84.8578 29.9386 85.8959 30.3826 86.6838 31.2706C87.4718 32.1586 87.8657 33.2592 87.8657 34.5725C87.8657 35.8857 87.4843 36.9864 86.7213 37.8744C85.9709 38.7499 84.9516 39.1876 83.6634 39.1876C82.3751 39.1876 81.337 38.7436 80.5491 37.8556C79.7736 36.9676 79.3859 35.8732 79.3859 34.5725ZM81.5434 37.6117C82.0437 38.4122 82.7503 38.8124 83.6634 38.8124C84.5764 38.8124 85.2643 38.4184 85.727 37.6305C86.2023 36.8425 86.4399 35.8294 86.4399 34.5912C86.4399 33.3405 86.1898 32.315 85.6895 31.5145C85.1892 30.714 84.4826 30.3138 83.5695 30.3138C82.669 30.3138 81.9811 30.714 81.5059 31.5145C81.0431 32.3024 80.8117 33.3155 80.8117 34.5537C80.8117 35.7919 81.0556 36.8113 81.5434 37.6117ZM91.6034 31.1956C91.6034 31.7709 91.8973 32.7965 92.4851 34.2723L93.9297 37.9119L95.393 33.4093C95.6807 32.5088 95.8245 31.8272 95.8245 31.3644C95.8245 30.689 95.3868 30.3513 94.5113 30.3513L94.4737 30.1262H98.0007L97.9632 30.3513C97.4504 30.3513 97.0877 30.5202 96.8751 30.8579C96.675 31.1831 96.2935 32.2024 95.7307 33.9159L94.0422 39.0563H92.9354L90.4965 32.8277C90.0837 31.7771 89.7085 31.1018 89.3708 30.8016C89.0457 30.5014 88.6517 30.3513 88.1889 30.3513L88.1514 30.1262H92.804L92.7665 30.3513C92.3288 30.3513 92.0223 30.4201 91.8472 30.5577C91.6847 30.6953 91.6034 30.9079 91.6034 31.1956ZM105.73 32.9403V34.8351C105.73 36.2234 105.774 37.1364 105.861 37.5742C105.949 37.9994 106.162 38.2121 106.499 38.2121C106.712 38.2121 106.993 38.1245 107.344 37.9494L107.437 38.137C107.337 38.2121 107.206 38.3059 107.043 38.4184C106.881 38.5185 106.549 38.6561 106.049 38.8312C105.549 39.0063 105.067 39.0938 104.604 39.0938C104.479 38.5685 104.417 37.7305 104.417 36.5799C104.142 37.3553 103.779 37.9869 103.329 38.4747C102.891 38.95 102.278 39.1876 101.49 39.1876C100.702 39.1876 100.077 38.9812 99.6142 38.5685C99.1639 38.1433 98.9388 37.5679 98.9388 36.8425C98.9388 34.8289 100.765 33.8158 104.417 33.8033V33.1279C104.417 32.2274 104.286 31.5395 104.023 31.0642C103.76 30.589 103.272 30.3513 102.56 30.3513C102.159 30.3513 101.834 30.4514 101.584 30.6515C101.334 30.8516 101.165 31.0705 101.077 31.3081C100.865 31.9585 100.546 32.2837 100.121 32.2837C99.708 32.2837 99.5016 32.0523 99.5016 31.5895C99.5016 31.1143 99.8143 30.7203 100.44 30.4076C101.065 30.0949 101.822 29.9386 102.71 29.9386C103.598 29.9386 104.323 30.195 104.886 30.7078C105.449 31.2081 105.73 31.9522 105.73 32.9403ZM100.365 36.9176C100.365 37.4053 100.483 37.8118 100.721 38.137C100.959 38.4497 101.334 38.606 101.847 38.606C102.372 38.606 102.847 38.3559 103.272 37.8556C103.698 37.3428 103.985 36.78 104.135 36.1671C104.298 35.5418 104.392 34.8977 104.417 34.2348C103.029 34.2473 102.003 34.5037 101.34 35.004C100.69 35.5043 100.365 36.1421 100.365 36.9176ZM111.214 30.1262H113.522V30.5389H111.214V37.6868C111.214 37.9494 111.277 38.162 111.402 38.3246C111.527 38.4747 111.69 38.5497 111.89 38.5497C112.34 38.5497 112.871 38.4184 113.484 38.1558L113.522 38.3621C112.646 38.9125 111.871 39.1876 111.195 39.1876C110.758 39.1876 110.433 39.0813 110.22 38.8687C110.007 38.6561 109.901 38.2871 109.901 37.7618V30.5389H108.775V30.1262C109.451 30.1262 109.92 29.9386 110.182 29.5634C110.458 29.1757 110.664 28.6066 110.802 27.8562L111.214 27.8186V30.1262ZM116.211 27.6873C115.998 27.4747 115.892 27.2246 115.892 26.9369C115.892 26.6492 115.998 26.3991 116.211 26.1865C116.424 25.9738 116.674 25.8675 116.961 25.8675C117.249 25.8675 117.499 25.9738 117.712 26.1865C117.924 26.3991 118.031 26.6492 118.031 26.9369C118.031 27.2246 117.924 27.4747 117.712 27.6873C117.499 27.8999 117.249 28.0063 116.961 28.0063C116.674 28.0063 116.424 27.8999 116.211 27.6873ZM117.674 29.9386V35.9045C117.674 37.2177 117.749 38.0244 117.899 38.3246C118.062 38.6248 118.512 38.7749 119.25 38.7749L119.288 39H114.71L114.748 38.7749C115.498 38.7749 115.955 38.6248 116.117 38.3246C116.28 38.0119 116.361 37.1927 116.361 35.867V34.5537C116.361 33.1029 116.317 32.1461 116.23 31.6833C116.155 31.2081 116.042 30.9016 115.892 30.7641C115.592 30.4889 115.129 30.3513 114.504 30.3513L114.466 30.145C115.554 30.0074 116.624 29.9386 117.674 29.9386ZM120.608 34.5725C120.608 33.2592 120.983 32.1586 121.734 31.2706C122.484 30.3826 123.503 29.9386 124.792 29.9386C126.08 29.9386 127.118 30.3826 127.906 31.2706C128.694 32.1586 129.088 33.2592 129.088 34.5725C129.088 35.8857 128.706 36.9864 127.943 37.8744C127.193 38.7499 126.174 39.1876 124.886 39.1876C123.597 39.1876 122.559 38.7436 121.771 37.8556C120.996 36.9676 120.608 35.8732 120.608 34.5725ZM122.766 37.6117C123.266 38.4122 123.972 38.8124 124.886 38.8124C125.799 38.8124 126.486 38.4184 126.949 37.6305C127.424 36.8425 127.662 35.8294 127.662 34.5912C127.662 33.3405 127.412 32.315 126.912 31.5145C126.411 30.714 125.705 30.3138 124.792 30.3138C123.891 30.3138 123.203 30.714 122.728 31.5145C122.265 32.3024 122.034 33.3155 122.034 34.5537C122.034 35.7919 122.278 36.8113 122.766 37.6117ZM133.613 29.9386V33.2968C133.726 32.3962 134.039 31.6146 134.551 30.9517C135.064 30.2763 135.746 29.9386 136.596 29.9386C138.51 29.9386 139.467 30.9392 139.467 32.9403V35.9045C139.467 37.2052 139.548 38.0119 139.711 38.3246C139.886 38.6248 140.336 38.7749 141.061 38.7749L141.099 39H136.54L136.578 38.7749C137.328 38.7749 137.778 38.6185 137.928 38.3059C138.078 37.9932 138.154 37.1364 138.154 35.7356V33.1279C138.154 32.2649 138.016 31.6146 137.741 31.1768C137.478 30.7391 137.053 30.5202 136.465 30.5202C135.89 30.5202 135.408 30.7203 135.021 31.1205C134.633 31.5082 134.345 32.0023 134.158 32.6026C133.795 33.7658 133.613 34.9352 133.613 36.1109C133.613 37.2865 133.689 38.0244 133.839 38.3246C134.001 38.6248 134.451 38.7749 135.189 38.7749L135.227 39H130.649L130.687 38.7749C131.437 38.7749 131.894 38.6248 132.056 38.3246C132.219 38.0119 132.3 37.1927 132.3 35.867V34.3661C132.3 32.4901 132.206 31.3582 132.019 30.9704C131.956 30.8329 131.844 30.7078 131.681 30.5952C131.531 30.4827 131.362 30.4139 131.175 30.3889C130.999 30.3638 130.756 30.3513 130.443 30.3513L130.405 30.145C131.494 30.0074 132.563 29.9386 133.613 29.9386ZM143.01 36.2047C143.01 37.0176 143.229 37.6305 143.667 38.0432C144.105 38.4434 144.624 38.6435 145.224 38.6435C145.837 38.6435 146.331 38.506 146.706 38.2308C147.081 37.9557 147.269 37.5867 147.269 37.1239C147.269 36.6487 147.106 36.2609 146.781 35.9608C146.469 35.6606 146.087 35.4167 145.637 35.2291C145.187 35.0415 144.73 34.8476 144.267 34.6475C143.817 34.4474 143.429 34.1535 143.104 33.7658C142.791 33.3781 142.635 32.859 142.635 32.2086C142.635 31.5583 142.923 31.0205 143.498 30.5952C144.086 30.1575 144.761 29.9386 145.524 29.9386C146.612 29.9386 147.463 30.1137 148.076 30.4639C148.076 31.0392 148.001 31.8397 147.851 32.8653L147.625 32.809C147.625 31.9835 147.438 31.3832 147.063 31.008C146.687 30.6327 146.231 30.4451 145.693 30.4451C145.168 30.4451 144.743 30.5827 144.417 30.8579C144.105 31.133 143.948 31.5082 143.948 31.9835C143.948 32.4463 144.105 32.8215 144.417 33.1092C144.743 33.3843 145.13 33.6157 145.581 33.8033C146.031 33.9909 146.481 34.191 146.931 34.4036C147.394 34.6038 147.782 34.8977 148.094 35.2854C148.42 35.6606 148.582 36.1234 148.582 36.6737C148.582 37.4741 148.27 38.0932 147.644 38.531C147.019 38.9687 146.193 39.1876 145.168 39.1876C144.155 39.1876 143.298 38.9187 142.598 38.3809C142.598 37.7555 142.66 37.0176 142.785 36.1671L143.01 36.2047Z" fill="black"></path><defs><clipPath id="clip0_20_164"><rect width="40" height="40" fill="white" transform="translate(0 2)"></rect></clipPath></defs></svg>